<svg width="194" height="32" viewBox="0 0 194 32" fill="none" xmlns="http://www.w3.org/2000/svg">
<mask id="mask0" mask-type="alpha" maskUnits="userSpaceOnUse" x="38" y="0" width="156" height="32">
<rect x="38.6665" width="154.667" height="32" fill="#C4C4C4"/>
</mask>
<g mask="url(#mask0)">
<path d="M47.4792 21.1978L45.1387 26.1739H42.3999L52.2099 5.33334L62.0198 26.1739H59.281L56.9406 21.1485H47.4792V21.1978ZM52.2099 10.8021L48.5747 18.8821H55.845L52.2099 10.8021Z" fill="#232831"/>
<path d="M79.4486 10.0136C77.9547 8.73267 75.9628 8.04291 74.0208 8.04291C69.4395 8.04291 65.9039 11.7873 65.9039 16.2215C65.9039 20.6064 69.3897 24.3507 73.971 24.3507C75.9628 24.3507 77.9049 23.6117 79.4486 22.2815V25.2376C77.8551 26.1244 75.8632 26.6664 74.0706 26.6664C68.1945 26.6664 63.3643 22.1337 63.3643 16.32C63.3643 10.4078 68.2443 5.77657 74.2697 5.77657C76.0624 5.77657 77.9049 6.21998 79.4486 7.10681V10.0136Z" fill="#232831"/>
<path d="M98.3714 10.014C96.8775 8.73297 94.8857 8.04321 92.9436 8.04321C88.3623 8.04321 84.8267 11.7876 84.8267 16.2218C84.8267 20.6067 88.3125 24.3511 92.8938 24.3511C94.8857 24.3511 96.8277 23.612 98.3714 22.2818V25.2379C96.7779 26.1247 94.7861 26.6667 92.9934 26.6667C87.1174 26.6174 82.2373 22.0847 82.2373 16.271C82.2373 10.3588 87.1174 5.7276 93.1428 5.7276C94.9355 5.7276 96.7779 6.17102 98.3216 7.05785V10.014H98.3714Z" fill="#232831"/>
<path d="M102.803 6.17084H113.808V8.48645H105.343V14.0538H113.609V16.3694H105.343V23.9075H113.808V26.1738H102.803V6.17084Z" fill="#232831"/>
<path d="M121.178 23.9075H127.403V26.1738H118.589V6.17084H121.178V23.9075Z" fill="#232831"/>
<path d="M148.517 8.83133L146.923 6.17084H143.985L145.579 8.83133H148.517Z" fill="#232831"/>
<path d="M158.376 8.83133L159.97 6.17084H157.032L155.438 8.83133H158.376Z" fill="#232831"/>
<path d="M169.879 23.5134H167.34V26.1739H169.879V23.5134Z" fill="#232831"/>
<path d="M162.46 6.17084V8.48645H167.34V8.83133H169.929V8.48645H174.76V6.17084H162.46Z" fill="#232831"/>
<path d="M178.594 6.17084V8.83133H181.134V8.48645H189.599V6.17084H178.594Z" fill="#232831"/>
<path d="M133.528 8.38792H134.225C135.271 8.38792 136.267 8.48645 137.014 8.83133H140.3C139.055 6.71279 136.317 6.17084 133.428 6.17084H130.938V8.83133H133.478V8.38792H133.528Z" fill="#232831"/>
<path d="M133.478 9.66893H130.938V12.3294H133.478V9.66893Z" fill="#232831"/>
<path d="M138.558 12.3294H140.948C140.998 12.1323 140.998 11.886 140.998 11.6889C140.998 10.9006 140.898 10.2602 140.699 9.66893H138.01C138.358 10.1616 138.558 10.8021 138.558 11.7382C138.558 11.9353 138.558 12.1323 138.558 12.3294Z" fill="#232831"/>
<path d="M139.653 15.7782C139.354 15.6796 139.055 15.5811 138.757 15.5318V15.4826C139.703 15.0392 140.35 14.1523 140.699 13.1177H138.358C137.761 14.7435 136.117 15.0392 134.175 15.0392H133.528V13.1177H130.988V15.7782H139.653Z" fill="#232831"/>
<path d="M133.528 19.2763V17.0592H135.121C137.063 17.0592 139.404 17.5027 140.151 19.2763H142.74C142.442 18.2417 141.844 17.3056 141.047 16.6158H131.038V19.2763H133.528Z" fill="#232831"/>
<path d="M135.47 23.9568H133.528V23.5134H130.988V26.1739H135.769C138.308 26.1739 140.798 25.3856 142.093 23.5134H138.259C137.412 23.8583 136.416 23.9568 135.47 23.9568Z" fill="#232831"/>
<path d="M133.478 20.0648H130.938V22.7253H133.478V20.0648Z" fill="#232831"/>
<path d="M139.454 22.7253H142.441C142.69 22.0848 142.84 21.395 142.84 20.6067C142.84 20.4097 142.79 20.2618 142.79 20.0648H140.25C140.25 20.1633 140.3 20.3111 140.3 20.4589C140.3 21.4443 140.001 22.1833 139.454 22.7253Z" fill="#232831"/>
<path d="M156.335 12.3294L157.928 9.66893H154.99L153.397 12.3294H156.335Z" fill="#232831"/>
<path d="M150.558 12.3294L148.965 9.66893H146.077L147.62 12.3294H150.558Z" fill="#232831"/>
<path d="M154.243 15.7782L155.837 13.1177H152.948L152.002 14.7435L151.006 13.1177H148.118L149.712 15.7782H154.243Z" fill="#232831"/>
<path d="M150.708 19.2764H153.248V17.5027L153.795 16.5666H150.16L150.708 17.5027V19.2764Z" fill="#232831"/>
<path d="M153.248 23.5134H150.708V26.1739H153.248V23.5134Z" fill="#232831"/>
<path d="M153.248 20.0645H150.708V22.725H153.248V20.0645Z" fill="#232831"/>
<path d="M169.879 9.66893H167.34V12.3294H169.879V9.66893Z" fill="#232831"/>
<path d="M169.879 13.1177H167.34V15.7782H169.879V13.1177Z" fill="#232831"/>
<path d="M169.879 16.5666H167.34V19.2271H169.879V16.5666Z" fill="#232831"/>
<path d="M169.879 20.0645H167.34V22.725H169.879V20.0645Z" fill="#232831"/>
<path d="M181.134 9.66893H178.594V12.3294H181.134V9.66893Z" fill="#232831"/>
<path d="M181.134 16.5666H178.594V19.2271H181.134V16.5666Z" fill="#232831"/>
<path d="M181.134 23.9075V23.5134H178.594V26.1739H189.599V23.9075H181.134Z" fill="#232831"/>
<path d="M181.134 20.0645H178.594V22.725H181.134V20.0645Z" fill="#232831"/>
<path d="M189.35 15.7782V14.0538H181.134V13.1177H178.594V15.7782H185.964H189.35Z" fill="#232831"/>
</g>
<mask id="mask1" mask-type="alpha" maskUnits="userSpaceOnUse" x="0" y="0" width="32" height="32">
<rect width="32" height="32" fill="#C4C4C4"/>
</mask>
<g mask="url(#mask1)">
<path d="M1.94336 0.666666V31.3333L30.0545 25.2054V0.666666H1.94336Z" fill="#0B6CFF"/>
<path fill-rule="evenodd" clip-rule="evenodd" d="M11.2438 15.2408L13.9418 9.29614L16.6387 15.2408H11.2438ZM8.72787 20.6001L10.459 16.9162H17.4235L19.1549 20.6001H21.1881L13.9418 5.28197L6.69434 20.6001H8.72787ZM18.6498 6.97568H18.1037V7.31496H15.7338L14.7774 5.2667H18.0618C20.277 5.2667 22.3975 5.68492 23.3428 7.31496H20.8036C20.2199 7.04845 19.4686 6.97568 18.6498 6.97568ZM18.1035 9.97098V7.92459H16.0184L16.974 9.97098H18.1035ZM23.815 9.97098H21.9793C21.9974 9.82251 22.0102 9.66707 22.0102 9.49711C22.0102 8.80005 21.8483 8.29527 21.5712 7.92459H23.6169C23.7711 8.36942 23.8594 8.88004 23.8594 9.47642C23.8594 9.63827 23.8409 9.8041 23.815 9.97098ZM22.8448 12.6279C22.6252 12.5399 22.3977 12.4666 22.1575 12.4246V12.3844C22.8832 12.0543 23.3977 11.349 23.6596 10.5815H21.841C21.3959 11.8181 20.1121 12.059 18.6078 12.059H18.1031V10.5815H17.2593L18.2149 12.6279H22.8448ZM23.8609 13.2385H18.4996L18.6611 13.5844H19.3214C20.8041 13.5844 22.6336 13.9061 23.1843 15.2848H25.1726C24.9534 14.4932 24.4965 13.7688 23.8609 13.2385ZM22.7045 17.9418H25.0121C25.2114 17.4683 25.3281 16.9292 25.3281 16.3085C25.3281 16.1912 25.3139 16.0743 25.2997 15.958L25.2921 15.8954H23.3349C23.3455 15.9896 23.3541 16.085 23.3541 16.1875C23.3541 16.9682 23.105 17.534 22.7045 17.9418ZM21.0739 18.7509C21.3087 18.7004 21.5357 18.6361 21.7488 18.5525H24.6873C24.0578 19.4889 23.021 20.0743 21.8294 20.3685L21.0739 18.7509Z" fill="white"/>
</g>
</svg>
